<svg width="24" height="24" viewBox="0 0 24 24" fill="none" xmlns="http://www.w3.org/2000/svg">
<path d="M5.25 3.75C4.4302 3.75 3.75 4.4302 3.75 5.25V18.75C3.75 19.5698 4.4302 20.25 5.25 20.25H18.75C19.5698 20.25 20.25 19.5698 20.25 18.75V5.25C20.25 4.4302 19.5698 3.75 18.75 3.75H5.25ZM5.25 5.25H18.75V18.75H14.8594V13.6875H16.8047L17.0859 11.4375H14.8594V9.98438C14.8594 9.32888 15.0212 8.88281 15.9609 8.88281H17.1797V6.84375C16.9719 6.816 16.2499 6.77344 15.4219 6.77344C13.6939 6.77344 12.5156 7.81275 12.5156 9.75V11.4375H10.5469V13.6875H12.5156V18.75H5.25V5.25Z" fill="#E8F3FF"/>
</svg>
