<svg xmlns="http://www.w3.org/2000/svg" width="520" height="112" viewBox="0 0 520 112" role="img" aria-labelledby="title">
  <title id="title">Supreme Autoparts</title>
  <defs><linearGradient id="g" x1="0" x2="1"><stop stop-color="#00a3ff"/><stop offset="1" stop-color="#0878d1"/></linearGradient></defs>
  <path fill="url(#g)" d="M5 8h94L84 104H5z"/>
  <path fill="none" stroke="#fff" stroke-width="6" d="M24 68c8-18 19-30 34-37 10 5 18 13 24 25-17-3-35 1-58 12Z"/>
  <circle cx="33" cy="73" r="8" fill="#fff"/><circle cx="74" cy="66" r="8" fill="#fff"/>
  <path fill="#fff" d="M67 20c-11-5-26-4-34 4-9 10-3 22 10 25l13 3c5 1 6 6 2 9-8 5-20 1-27-4l-5 18c11 7 27 9 40 3 16-7 19-27 4-36-7-4-16-5-21-7-4-2-2-7 3-8 6-2 13 1 18 4z" opacity=".28"/>
  <text x="116" y="57" fill="#ffffff" font-family="Arial, sans-serif" font-size="40" font-weight="900" letter-spacing="2">SUPREME</text>
  <text x="119" y="88" fill="#00a3ff" font-family="Arial, sans-serif" font-size="24" font-weight="800" letter-spacing="8">AUTOPARTS</text>
</svg>
